# xmcd
#
# Track frame offsets: 
#        150
#        18565
#        35967
#        56689
#        69259
#        88161
#        116886
#        137373
#        159796
#        179806
#        197793
#        221420
#
# Disc length: 2995 seconds
#
# Revision: 0
# Processed by: cddbd v1.5.2PL0 Copyright (c) Steve Scherf et al.
# Submitted via: ExactAudioCopyFreeDBPlugin 1.0
#
DISCID=af0bb10c
DTITLE=Texas Slim - I Have Arrived
DYEAR=2002
DGENRE=Blues
TTITLE0=The Best Stuff In Town
TTITLE1=Easy Street
TTITLE2=Suer Hero Morning Brew
TTITLE3=Drama Queen
TTITLE4=Code Off the Collar
TTITLE5=I Have Arrived
TTITLE6=Mind Framed
TTITLE7=Cowtown Rain Dance
TTITLE8=20th Century Woman
TTITLE9=Whiskey Mama
TTITLE10=NYC Pride
TTITLE11=Best Stuff In Town (Reprise)
EXTD=
EXTT0=
EXTT1=
EXTT2=
EXTT3=
EXTT4=
EXTT5=
EXTT6=
EXTT7=
EXTT8=
EXTT9=
EXTT10=
EXTT11=
PLAYORDER=
